<svg version="1.1" id="Слой_1" xmlns="http://www.w3.org/2000/svg" xmlns:xlink="http://www.w3.org/1999/xlink" x="0px" y="0px"
	 viewBox="0 0 595.3 841.9" style="enable-background:new 0 0 595.3 841.9;" xml:space="preserve">
<style type="text/css">
	.st0{fill:#222222;}
	.st1{fill:#2B2B2B;}
	.st2{fill:none;stroke:#589C81;stroke-width:0.7087;stroke-miterlimit:10;}
</style>
<g>
	<polygon class="st0" points="1088.1,911.1 1092.9,912.1 1092.9,912.7 1093.5,912.7 1093.5,911.6 1087.5,910.4 1087.5,912.7
		1088.1,912.7 	"/>
	<path class="st0" d="M1097.2,932.5h3.8l-0.1-0.8l-1.6-11.6l-5.9-1.1v-1.8l0.1-0.1c0.6-0.7,1-1.6,1-2.5l0-0.1l1.1-1.1v-3.9
		c0-1.3-1.1-2.4-2.4-2.4h-5.4c-1.3,0-2.4,1.1-2.4,2.4v3.9l1.1,1.1l0,0.1c0.1,0.9,0.4,1.7,1,2.4l0.1,0.1v1.9l-5.9,1.1l-1.7,12.3h3.8
		v-0.6h-3.1l0.1-0.8v0l0-0.4l1.4-10l1.1-0.2l0,0l2.7-0.5l2.5,3l-0.2,0.1h1l1.2-1.6l1.2,1.6h1l0,0l-0.2-0.1l2.5-3l3.7,0.7l0,0.2
		l1.4,10.2l0,0l0.1,0.9h-3.2L1097.2,932.5z M1087,914.5l0-0.1l-1.1-1.1v-3.6c0-1,0.8-1.9,1.9-1.9h5.4c1,0,1.9,0.8,1.9,1.9v3.6
		l-1.1,1.1v0.1c0,0.9-0.4,1.8-1.1,2.5c-0.7,0.6-1.5,1-2.4,1c0,0-0.1,0-0.1,0C1088.6,917.9,1087.1,916.4,1087,914.5z M1088.9,922.6
		l-2.3-2.8l1.2-0.2l2.3,1.4L1088.9,922.6z M1088.1,919.2v-1.4l0.3,0.2c0.6,0.4,1.3,0.6,1.9,0.6l0.1,0c0.7,0,1.4-0.2,2.1-0.6l0.3-0.2
		v1.4l-2.4,1.4L1088.1,919.2z M1092.1,922.6l-1.2-1.6l2.3-1.4l1.2,0.2L1092.1,922.6z"/>
	<path class="st1" d="M1089.3,923.1"/>
	<path class="st1" d="M1091.7,923.1"/>
	<path class="st1" d="M1088.2,923.1"/>
	<path class="st1" d="M1092.8,923.1"/>
</g>
<rect x="1084" y="923.4" class="st2" width="12.9" height="8.7"/>
<line class="st2" x1="1088.4" y1="927.7" x2="1092.6" y2="927.7"/>
</svg>
