<svg version="1.1" id="Слой_1" xmlns="http://www.w3.org/2000/svg" xmlns:xlink="http://www.w3.org/1999/xlink" x="0px" y="0px"
	 viewBox="0 0 595.3 841.9" style="enable-background:new 0 0 595.3 841.9;" xml:space="preserve">
<style type="text/css">
	.st0{fill:#1D1D1D;}
	.st1{fill:#009E82;}
</style>
<path class="st0" d="M1215.3,942.5h-13.9v-4.6c0-3.7-3-6.7-6.7-6.7h-14.5c-3.7,0-6.7,3-6.7,6.7v4.6h-13.3c-3.7,0-6.7,3-6.7,6.7v36.7
	c0,3.7,3,6.7,6.7,6.7h7.3h9.3h38.4c3.7,0,6.7-3,6.7-6.7v-36.7C1222,945.5,1219,942.5,1215.3,942.5z M1175.6,937.9
	c0-2.6,2.1-4.7,4.7-4.7h14.5c2.6,0,4.7,2.1,4.7,4.7v4.6h-23.8V937.9z M1220,985.9c0,2.6-2.1,4.7-4.7,4.7h-38.4h-9.4h-7.3
	c-2.6,0-4.7-2.1-4.7-4.7v-36.7c0-2.6,2.1-4.7,4.7-4.7h55c2.6,0,4.7,2.1,4.7,4.7V985.9z"/>
<g>
	<g>
		<path class="st1" d="M1170.1,974.4c-0.4-0.4-0.4-0.9,0-1.3l0.2-0.2c0.4-0.4,0.9-0.4,1.3,0c0.4,0.4,0.4,0.9,0,1.3l-0.2,0.2
			C1171,974.8,1170.4,974.8,1170.1,974.4L1170.1,974.4z M1177.8,952.4l0.2-0.2c0.4-0.4,0.4-0.9,0-1.3c-0.4-0.4-0.9-0.4-1.3,0
			l-0.2,0.2c-0.4,0.4-0.4,0.9,0,1.3C1176.9,952.8,1177.5,952.8,1177.8,952.4L1177.8,952.4z M1178.6,986.1l0,0.3
			c0,0.5,0.4,0.9,0.9,0.9c0.3,0,0.5-0.1,0.6-0.3c0.2-0.2,0.3-0.4,0.3-0.6l0-0.3c0-0.5-0.4-0.9-0.9-0.9
			C1179,985.2,1178.6,985.6,1178.6,986.1L1178.6,986.1z M1188.1,985.6c-0.5,0-0.9,0.4-0.9,0.9c0,0.5,0.4,0.9,0.9,0.9l0.3,0
			c0.3,0,0.5-0.1,0.6-0.3c0.2-0.2,0.3-0.4,0.3-0.6c0-0.5-0.4-0.9-0.9-0.9L1188.1,985.6z M1189.9,949.4l0.2-0.2
			c0.4-0.4,0.4-0.9,0-1.3c-0.4-0.4-0.9-0.4-1.3,0l-0.2,0.2c-0.4,0.4-0.4,0.9,0,1.3C1189,949.7,1189.5,949.7,1189.9,949.4
			L1189.9,949.4z M1179.7,962.4c0.5,0,0.9-0.4,0.9-0.9l0-1.7l1.7,0c0.3,0,0.5-0.1,0.6-0.3c0.2-0.2,0.3-0.4,0.3-0.6
			c0-0.5-0.4-0.9-0.9-0.9l-1.7,0l0-1.7c0-0.5-0.4-0.9-0.9-0.9c-0.5,0-0.9,0.4-0.9,0.9l0,1.7l-1.7,0c-0.5,0-0.9,0.4-0.9,0.9
			c0,0.5,0.4,0.9,0.9,0.9l1.7,0l0,1.7C1178.8,962,1179.2,962.4,1179.7,962.4L1179.7,962.4z M1200.5,958.2c0-0.5-0.4-0.9-0.9-0.9
			l-1.7,0l0-1.7c0-0.5-0.4-0.9-0.9-0.9c-0.5,0-0.9,0.4-0.9,0.9l0,1.7l-1.7,0c-0.5,0-0.9,0.4-0.9,0.9c0,0.5,0.4,0.9,0.9,0.9l1.7,0
			l0,1.7c0,0.5,0.4,0.9,0.9,0.9c0.5,0,0.9-0.4,0.9-0.9l0-1.7l1.7,0c0.3,0,0.5-0.1,0.6-0.3C1200.4,958.7,1200.5,958.4,1200.5,958.2
			L1200.5,958.2z M1204.7,963l0,0.3c0,0.5,0.4,0.9,0.9,0.9c0.3,0,0.5-0.1,0.6-0.3c0.2-0.2,0.3-0.4,0.3-0.6l0-0.3
			c0-0.5-0.4-0.9-0.9-0.9C1205.1,962,1204.7,962.5,1204.7,963L1204.7,963z M1178.4,976.6l0-1.7c0-0.5-0.4-0.9-0.9-0.9
			c-0.5,0-0.9,0.4-0.9,0.9l0,1.7l-1.7,0c-0.5,0-0.9,0.4-0.9,0.9c0,0.5,0.4,0.9,0.9,0.9l1.7,0l0,1.7c0,0.5,0.4,0.9,0.9,0.9
			c0.5,0,0.9-0.4,0.9-0.9l0-1.7l1.7,0c0.3,0,0.5-0.1,0.6-0.3c0.2-0.2,0.3-0.4,0.3-0.6c0-0.5-0.4-0.9-0.9-0.9L1178.4,976.6z
			 M1203.9,950.9l-0.3,0c-0.5,0-0.9,0.4-0.9,0.9c0,0.5,0.4,0.9,0.9,0.9l0.3,0c0.3,0,0.5-0.1,0.6-0.3c0.2-0.2,0.3-0.4,0.3-0.6
			C1204.8,951.3,1204.4,950.9,1203.9,950.9L1203.9,950.9z M1189.4,955.7l2.7,9l9,2.8c0.4,0.1,0.6,0.5,0.6,0.9c0,0.4-0.3,0.8-0.6,0.9
			l-9,2.7l-2.8,9c0,0.1-0.1,0.3-0.2,0.4c-0.2,0.2-0.4,0.3-0.6,0.3c-0.4,0-0.8-0.3-0.9-0.6l-2.7-9l-9-2.8c-0.4-0.1-0.6-0.5-0.6-0.9
			c0-0.4,0.3-0.8,0.6-0.9l9-2.7l2.8-9c0.1-0.4,0.5-0.6,0.9-0.6C1189,955.1,1189.3,955.4,1189.4,955.7L1189.4,955.7z M1188.5,959.1
			l-2.1,6.6c-0.1,0.3-0.3,0.5-0.6,0.6l-6.6,2l6.6,2.1c0.3,0.1,0.5,0.3,0.6,0.6l2,6.6l2.1-6.6c0-0.1,0.1-0.3,0.2-0.4
			c0.1-0.1,0.2-0.2,0.4-0.2l6.6-2l-6.6-2.1c-0.3-0.1-0.5-0.3-0.6-0.6L1188.5,959.1z M1171,962.9l0-0.3c0-0.5-0.4-0.9-0.9-0.9
			c-0.5,0-0.9,0.4-0.9,0.9l0,0.3c0,0.5,0.4,0.9,0.9,0.9c0.3,0,0.5-0.1,0.6-0.3C1170.8,963.3,1171,963.1,1171,962.9L1171,962.9z
			 M1171,962.9"/>
	</g>
	<path class="st1" d="M1198,981.1c0.5,0,0.9-0.4,0.9-0.9l0-1.7l1.7,0c0.3,0,0.5-0.1,0.6-0.3c0.2-0.2,0.3-0.4,0.3-0.6
		c0-0.5-0.4-0.9-0.9-0.9l-1.7,0l0-1.7c0-0.5-0.4-0.9-0.9-0.9c-0.5,0-0.9,0.4-0.9,0.9l0,1.7l-1.7,0c-0.5,0-0.9,0.4-0.9,0.9
		c0,0.5,0.4,0.9,0.9,0.9l1.7,0l0,1.7C1197.1,980.7,1197.5,981.1,1198,981.1L1198,981.1z"/>
	<path class="st1" d="M1203.1,970.1l0,0.3c0,0.5,0.4,0.9,0.9,0.9c0.3,0,0.5-0.1,0.6-0.3c0.2-0.2,0.3-0.4,0.3-0.6l0-0.3
		c0-0.5-0.4-0.9-0.9-0.9C1203.5,969.2,1203.1,969.6,1203.1,970.1L1203.1,970.1z"/>
</g>
</svg>
