<svg version="1.1" id="Слой_1" xmlns="http://www.w3.org/2000/svg" xmlns:xlink="http://www.w3.org/1999/xlink" x="0px" y="0px"
	 viewBox="0 0 595.3 841.9" style="enable-background:new 0 0 595.3 841.9;" xml:space="preserve">
<style type="text/css">
	.st0{fill:#009E82;}
	.st1{fill:#1D1D1D;}
</style>
<g>
	<g id="XMLID_1_">
		<g>
			<g>
				<path class="st0" d="M1219.7,975c1.8,0,3.2,1.4,3.2,3.2c0,1.8-1.4,3.2-3.2,3.2c-0.3,0-0.6,0-0.9-0.1l-0.2-0.1l-5.6,7.7l0.1,0.1
					c0.4,0.5,0.6,1.2,0.6,1.8c0,1.8-1.4,3.2-3.2,3.2s-3.2-1.4-3.2-3.2c0-0.4,0.1-0.8,0.2-1.2l0.1-0.2l-4.6-4l-0.2,0.1
					c-0.9,0.5-2,0.5-2.9,0.1l-0.2-0.1l-4.9,4.8l0.1,0.2c0.2,0.4,0.3,0.9,0.3,1.4c0,1.8-1.4,3.2-3.2,3.2c-0.8,0-1.6-0.3-2.2-0.9
					l-0.1-0.1l-3.7,1.8l0,0.2c0,0.1,0,0.3,0,0.4c0,1.8-1.4,3.2-3.2,3.2c-1.8,0-3.2-1.4-3.2-3.2c0-1.8,1.4-3.2,3.2-3.2
					c0.8,0,1.6,0.3,2.2,0.9l0.1,0.1l3.7-1.8l0-0.2c0-0.1,0-0.3,0-0.4c0-1.8,1.4-3.2,3.2-3.2c0.5,0,1,0.1,1.4,0.3l0.2,0.1l4.8-4.8
					l-0.1-0.2c-0.2-0.4-0.3-0.9-0.3-1.4c0-1.8,1.4-3.2,3.2-3.2c1.8,0,3.2,1.4,3.2,3.2c0,0.4-0.1,0.8-0.2,1.2l-0.1,0.2l4.6,4l0.2-0.1
					c0.8-0.4,1.7-0.5,2.5-0.3l0.2,0.1l5.6-7.7l-0.1-0.1c-0.4-0.5-0.6-1.2-0.6-1.8C1216.5,976.5,1217.9,975,1219.7,975z
					 M1221.1,978.2c0-0.8-0.6-1.4-1.4-1.4c-0.8,0-1.4,0.6-1.4,1.4c0,0.8,0.6,1.4,1.4,1.4C1220.5,979.6,1221.1,979,1221.1,978.2z
					 M1211.9,990.9c0-0.8-0.6-1.4-1.4-1.4c-0.8,0-1.4,0.6-1.4,1.4c0,0.8,0.6,1.4,1.4,1.4C1211.3,992.3,1211.9,991.7,1211.9,990.9z
					 M1202.7,982.8c0-0.8-0.6-1.4-1.4-1.4s-1.4,0.6-1.4,1.4c0,0.8,0.6,1.4,1.4,1.4S1202.7,983.6,1202.7,982.8z M1193.5,992
					c0-0.8-0.6-1.4-1.4-1.4c-0.8,0-1.4,0.6-1.4,1.4s0.6,1.4,1.4,1.4C1192.8,993.4,1193.5,992.8,1193.5,992z M1184.3,996.6
					c0-0.8-0.6-1.4-1.4-1.4s-1.4,0.6-1.4,1.4c0,0.8,0.6,1.4,1.4,1.4S1184.3,997.4,1184.3,996.6z"/>
			</g>
		</g>
	</g>
</g>
<g>
	<path class="st1" d="M1233.9,965.7h-62.5c-2,0-3.6,1.6-3.6,3.6v39c0,2,1.6,3.6,3.6,3.6h19v4.3h-3.6c-0.5,0-0.9,0.4-0.9,0.9
		c0,0.5,0.4,0.9,0.9,0.9h31.6c0.5,0,0.9-0.4,0.9-0.9c0-0.5-0.4-0.9-0.9-0.9h-3.6v-4.3h19.1c2,0,3.6-1.6,3.6-3.6v-39
		C1237.5,967.3,1235.9,965.7,1233.9,965.7z M1212.9,1016.2h-20.6v-4.3h20.6V1016.2z M1235.6,1008.3c0,0.9-0.8,1.7-1.7,1.7h-62.5
		c-0.9,0-1.7-0.8-1.7-1.7v-1.1h65.9V1008.3z M1235.6,1005.3h-15v-18.4c0-0.5-0.4-0.9-0.9-0.9c-0.5,0-0.9,0.4-0.9,0.9v18.4h-7.4v-5.7
		c0-0.5-0.4-0.9-0.9-0.9s-0.9,0.4-0.9,0.9v5.7h-7.4v-13.8c0-0.5-0.4-0.9-0.9-0.9c-0.5,0-0.9,0.4-0.9,0.9v13.8h-7.4v-4.6
		c0-0.5-0.4-0.9-0.9-0.9s-0.9,0.4-0.9,0.9v4.6h-7.4c0-0.2-0.1-0.5-0.3-0.6c-0.3-0.3-0.9-0.3-1.3,0c-0.2,0.2-0.3,0.4-0.3,0.6h-12.3
		v-36.1c0-0.9,0.8-1.7,1.7-1.7h62.5c0.9,0,1.7,0.8,1.7,1.7V1005.3z"/>
</g>
</svg>
